<svg xmlns="http://www.w3.org/2000/svg" viewBox="0 0 800 600">
  <defs>
    <linearGradient id="bg" x1="0" y1="0" x2="1" y2="1">
      <stop offset="0%" stop-color="#ede9fe"/>
      <stop offset="100%" stop-color="#ddd6fe"/>
    </linearGradient>
  </defs>
  <rect width="800" height="600" fill="url(#bg)"/>
  <path d="M260 150h220l60 60v240a30 30 0 0 1-30 30H290a30 30 0 0 1-30-30V180a30 30 0 0 1 30-30z" fill="#312e81"/>
  <rect x="310" y="260" width="180" height="150" rx="18" fill="#6366f1"/>
  <rect x="300" y="160" width="32" height="70" rx="8" fill="#c7d2fe"/>
  <rect x="346" y="160" width="32" height="70" rx="8" fill="#c7d2fe"/>
  <rect x="392" y="160" width="32" height="70" rx="8" fill="#c7d2fe"/>
  <rect x="438" y="160" width="32" height="70" rx="8" fill="#c7d2fe"/>
</svg>
